<?xml version="1.0" encoding="UTF-8" standalone="no"?>
<!-- Created with Inkscape (http://www.inkscape.org/) -->

<svg
   xmlns:dc="http://purl.org/dc/elements/1.1/"
   xmlns:cc="http://creativecommons.org/ns#"
   xmlns:rdf="http://www.w3.org/1999/02/22-rdf-syntax-ns#"
   xmlns:svg="http://www.w3.org/2000/svg"
   xmlns="http://www.w3.org/2000/svg"
   xmlns:sodipodi="http://sodipodi.sourceforge.net/DTD/sodipodi-0.dtd"
   xmlns:inkscape="http://www.inkscape.org/namespaces/inkscape"
   width="95.297134mm"
   height="24.747536mm"
   viewBox="0 0 95.297134 24.747536"
   version="1.1"
   id="svg8"
   inkscape:version="0.92.4 5da689c313, 2019-01-14"
   sodipodi:docname="metal-analyzer.svg">
  <defs
     id="defs2" />
  <style>
    #text3715 {
      fill: #000000;
      stroke: #ffffff;
      stroke-width: 0.5;
      paint-order: stroke;
    }
    @media (prefers-color-scheme: dark) {
      #text3715 {
        fill: #ffffff;
        stroke: none;
      }
    }
  </style>
  <sodipodi:namedview
     id="base"
     pagecolor="#ffffff"
     bordercolor="#666666"
     borderopacity="1.0"
     inkscape:pageopacity="0.0"
     inkscape:pageshadow="2"
     inkscape:zoom="1.979899"
     inkscape:cx="64.938033"
     inkscape:cy="-10.231391"
     inkscape:document-units="mm"
     inkscape:current-layer="layer1"
     showgrid="false"
     inkscape:window-width="1920"
     inkscape:window-height="1006"
     inkscape:window-x="0"
     inkscape:window-y="0"
     inkscape:window-maximized="1" />
  <metadata
     id="metadata5">
    <rdf:RDF>
      <cc:Work
         rdf:about="">
        <dc:format>image/svg+xml</dc:format>
        <dc:type
           rdf:resource="http://purl.org/dc/dcmitype/StillImage" />
        <dc:title />
      </cc:Work>
    </rdf:RDF>
  </metadata>
  <g
     inkscape:label="Ebene 1"
     inkscape:groupmode="layer"
     id="layer1"
     transform="translate(-29.534624,-59.398722)">
    <g
       aria-label="metal."
       style="font-style:normal;font-variant:normal;font-weight:bold;font-stretch:normal;font-size:10.58333302px;line-height:1.25;font-family:'Fira Code';-inkscape-font-specification:'Fira Code Bold';letter-spacing:0px;word-spacing:0px"
       id="text3715">
      <path
         d="M36.18527899666667 62.27891575746667Q36.7985695768 62.27891575746667 37.09436016633333 62.677826002066666Q37.390150755866664 63.07673624666667 37.390150755866664 63.9668216904V68.232719H35.9193388336V64.16220630000001Q35.9193388336 63.85827468506667 35.8623516558 63.73344562893334Q35.805364478 63.6086165728 35.63168926946667 63.6086165728Q35.4960055128 63.6086165728 35.35218073073333 63.68731315166667Q35.208355948666664 63.766009730533334 35.03468074013333 63.983103741200004V68.232719H33.829808980933336V64.16220630000001Q33.829808980933336 63.85827468506667 33.77282180313334 63.73344562893334Q33.715834625333336 63.6086165728 33.5421594168 63.6086165728Q33.40647566013333 63.6086165728 33.262650878066665 63.68731315166667Q33.118826096 63.766009730533334 32.94515088746667 63.983103741200004V68.232719H31.452629564133332V62.4688730168H32.711774826L32.8257491816 63.02789009426667Q33.097116694933334 62.65883027613334 33.37391155853334 62.4688730168Q33.65070642213333 62.27891575746667 34.0306209408 62.27891575746667Q34.3562619568 62.27891575746667 34.58692434313333 62.44444994060001Q34.81758672946667 62.60998412373334 34.91527903426667 62.96276189106667Q35.17579184706666 62.65883027613334 35.49057816253333 62.4688730168Q35.805364478 62.27891575746667 36.18527899666667 62.27891575746667ZM39.9247233304 65.85011223293334Q40.01156093466667 66.5556677676 40.38604810306667 66.86231305766667Q40.76053527146667 67.16895834773334 41.3086976484 67.16895834773334Q41.704894217866666 67.16895834773334 42.073954036 67.03870194133333Q42.44301385413333 66.90844553493334 42.78493692093333 66.69135152426666L43.474210404800004 67.62485577013334Q43.0671591348 67.9722061872 42.4891463314 68.19472754813333Q41.911133528 68.41724890906667 41.17301389173333 68.41724890906667Q40.1852361432 68.41724890906667 39.5176720604 68.02376601473334Q38.850107977600004 67.63028312040001 38.51361226106667 66.94100963653334Q38.177116544533334 66.25173615266667 38.177116544533334 65.35622335866667Q38.177116544533334 64.5041293668 38.50275756053334 63.806714857533336Q38.82839857653334 63.10930034826667 39.455257532333334 62.69410805286667Q40.08211648813334 62.27891575746667 40.98848398266667 62.27891575746667Q41.8134412232 62.27891575746667 42.41859077793333 62.6316935248Q43.02374033266667 62.984471292133335 43.35752237406667 63.64660802466667Q43.69130441546667 64.3087447572 43.69130441546667 65.2368216528Q43.69130441546667 65.38336011 43.68316339006667 65.55160796826667Q43.67502236466667 65.71985582653333 43.65874031386667 65.85011223293334ZM40.98848398266667 63.429514014000006Q40.52715921 63.429514014000006 40.24493699613333 63.76058238026667Q39.96271478226667 64.09165074653333 39.90301392933333 64.81891568226666H42.019680533333336Q42.01425318306667 64.18934305133334 41.775449771333335 63.80942853266667Q41.5366463596 63.429514014000006 40.98848398266667 63.429514014000006ZM50.138996532266674 67.89622328346667Q49.80250081573334 68.11331729413334 49.324893992266674 68.2652831016Q48.84728716880001 68.41724890906667 48.25027863946667 68.41724890906667Q47.12138978400001 68.41724890906667 46.573227407066675 67.83923610566667Q46.02506503013334 67.26122330226667 46.02506503013334 66.26801820346667V63.652035374933334H44.81476592066667V62.4688730168H46.02506503013334V61.22058245546667L47.740107714400004 61.014343145333335V62.4688730168H49.596261505600005L49.42801364733334 63.652035374933334H47.740107714400004V66.26801820346667Q47.740107714400004 66.69677887453334 47.93549232400001 66.8813087836Q48.13087693360001 67.06583869266667 48.55963760466667 67.06583869266667Q48.86356921960001 67.06583869266667 49.115941007 66.99256946406666Q49.368312794400005 66.91930023546666 49.569124754266674 66.80532587986667ZM56.31532113573334 66.5719498184Q56.31532113573334 66.8975908344 56.40487241513334 67.0441292916Q56.49442369453334 67.19066774880001 56.69523565440001 67.26665065253334L56.34245788706667 68.395539508Q55.83228696200001 68.34669335560001 55.48222286980001 68.17030447193335Q55.13215877760001 67.99391558826667 54.93134681773334 67.63571047066667Q54.60027845146668 68.03190704013333 54.08468017613335 68.22457797460001Q53.56908190080001 68.41724890906667 53.03177422440001 68.41724890906667Q52.14168878066668 68.41724890906667 51.61252212966667 67.90979165913333Q51.083355478666675 67.40233440920001 51.083355478666675 66.60451392Q51.083355478666675 65.66558232386667 51.818761439800014 65.1554113988Q52.554167400933345 64.64524047373334 53.88929556653334 64.64524047373334H54.665406654666675V64.42814646306667Q54.665406654666675 63.543488369600006 53.525663098666676 63.543488369600006Q53.24886823506667 63.543488369600006 52.81468021373334 63.62218494846667Q52.380492192400006 63.70088152733334 51.94630417106668 63.84741998453334L51.55010760160001 62.70767642853334Q52.109124679066674 62.496009768133334 52.71427423380001 62.3874627628Q53.31942378853334 62.27891575746667 53.79703061200001 62.27891575746667Q55.08331262520001 62.27891575746667 55.699316880466675 62.8026550582Q56.31532113573334 63.326394358933335 56.31532113573334 64.31417210746667ZM53.623355403466675 67.19066774880001Q53.90015026706668 67.19066774880001 54.20408188200001 67.02513356566666Q54.508013496933344 66.85959938253333 54.665406654666675 66.5556677676V65.62216352173334H54.24207333386668Q53.525663098666676 65.62216352173334 53.18916738213334 65.84197120753333Q52.852671665600006 66.06177889333334 52.852671665600006 66.48511221413334Q52.852671665600006 66.8161805804 53.056197300600004 67.0034241646Q53.25972293560001 67.19066774880001 53.623355403466675 67.19066774880001ZM60.98284236506668 60.17853120426667V66.41998401093333Q60.98284236506668 66.767334428 61.18094064980001 66.91658656033334Q61.37903893453334 67.06583869266667 61.72638935160001 67.06583869266667Q61.94891071253335 67.06583869266667 62.155150022666675 67.01427886513335Q62.36138933280001 66.96271903760001 62.54049189160001 66.89216348413333L62.95297051186668 68.0373343904Q62.65989359746668 68.18930019786667 62.24741497720001 68.30327455346668Q61.83493635693335 68.41724890906667 61.286773980000014 68.41724890906667Q60.244722728800014 68.41724890906667 59.75626120480001 67.8175267046Q59.26779968080001 67.21780450013334 59.26779968080001 66.20831735053333V61.35083886186667H57.56903904733335V60.17853120426667ZM65.77519265053334 67.2069497996Q65.77519265053334 66.87588143333333 65.93801315853335 66.60180024486667Q66.10083366653335 66.3277190564 66.37762853013335 66.16218487326667Q66.65442339373335 65.99665069013334 66.98549176000002 65.99665069013334Q67.32198747653335 65.99665069013334 67.59606866500002 66.16218487326667Q67.87014985346669 66.3277190564 68.03297036146668 66.60180024486667Q68.19579086946668 66.87588143333333 68.19579086946668 67.2069497996Q68.19579086946668 67.5325908156 68.03297036146668 67.8093856792Q67.87014985346669 68.08618054280001 67.59606866500002 68.25171472593334Q67.32198747653335 68.41724890906667 66.98549176000002 68.41724890906667Q66.65442339373335 68.41724890906667 66.37762853013335 68.25171472593334Q66.10083366653335 68.08618054280001 65.93801315853335 67.8093856792Q65.77519265053334 67.5325908156 65.77519265053334 67.2069497996Z"
         style="font-style:normal;font-variant:normal;font-weight:bold;font-stretch:normal;font-family:'Fira Code';-inkscape-font-specification:'Fira Code Bold';"
         id="path817" />
    </g>
    <rect
       style="fill:#30363b;fill-opacity:1;stroke:#20262b;stroke-width:0.39205828;stroke-miterlimit:4;stroke-dasharray:none;stroke-opacity:1"
       id="rect3721"
       width="54.407944"
       height="12.607942"
       x="70.230652"
       y="71.342285" />
    <g
       aria-label="analyzer"
       transform="translate(9.5,0)"
       style="font-style:normal;font-weight:normal;font-size:10.58333302px;line-height:1.25;font-family:sans-serif;letter-spacing:0px;word-spacing:0px;fill:#ffffff;fill-opacity:1;stroke:none;stroke-width:0.26458332"
       id="text3719">
      <path
         d="m 68.007281,79.143583 q 0,0.3175 0.08467,0.460375 0.08996,0.142875 0.28575,0.216958 l -0.343959,1.100667 q -0.497416,-0.04762 -0.841375,-0.216959 -0.338666,-0.174625 -0.534458,-0.523875 -0.322792,0.386292 -0.8255,0.576792 -0.502708,0.185208 -1.026583,0.185208 -0.867833,0 -1.386417,-0.492125 -0.513291,-0.497416 -0.513291,-1.275291 0,-0.915459 0.714375,-1.412875 0.719666,-0.497417 2.021416,-0.497417 h 0.756708 v -0.211667 q 0,-0.439208 -0.28575,-0.650875 -0.280458,-0.211666 -0.825499,-0.211666 -0.269875,0 -0.693209,0.07937 -0.423333,0.07408 -0.846666,0.216958 l -0.386292,-1.11125 q 0.545042,-0.206375 1.132417,-0.312208 0.592666,-0.105834 1.058333,-0.105834 1.254125,0 1.852083,0.513292 0.60325,0.508 0.60325,1.471083 z m -2.624666,0.60325 q 0.269875,0 0.566208,-0.15875 0.296333,-0.164042 0.449791,-0.460375 v -0.910167 h -0.412749 q -0.6985,0 -1.026584,0.216958 -0.328083,0.211667 -0.328083,0.624417 0,0.322792 0.195792,0.508 0.201083,0.179917 0.555625,0.179917 z"
         style="font-style:normal;font-variant:normal;font-weight:bold;font-stretch:normal;font-family:'Fira Code';-inkscape-font-specification:'Fira Code Bold';fill:#ffffff;stroke-width:0.26458332"
         id="path828" />
      <path
         d="m 69.626515,80.762833 v -5.61975 h 1.4605 l 0.116417,0.650875 q 0.375708,-0.423334 0.79375,-0.629709 0.418041,-0.206375 0.9525,-0.206375 0.719666,0 1.132416,0.439209 0.41275,0.439208 0.41275,1.23825 v 4.1275 h -1.672166 v -3.645959 q 0,-0.343958 -0.04762,-0.545041 -0.04763,-0.206375 -0.169334,-0.291042 -0.116416,-0.08996 -0.322791,-0.08996 -0.174625,0 -0.343959,0.07937 -0.164041,0.07408 -0.322791,0.216958 -0.15875,0.142875 -0.3175,0.343958 v 3.931709 z"
         style="font-style:normal;font-variant:normal;font-weight:bold;font-stretch:normal;font-family:'Fira Code';-inkscape-font-specification:'Fira Code Bold';fill:#ffffff;stroke-width:0.26458332"
         id="path830" />
      <path
         d="m 80.707248,79.143583 q 0,0.3175 0.08467,0.460375 0.08996,0.142875 0.28575,0.216958 l -0.343958,1.100667 q -0.497417,-0.04762 -0.841375,-0.216959 -0.338667,-0.174625 -0.534458,-0.523875 -0.322792,0.386292 -0.8255,0.576792 -0.502709,0.185208 -1.026584,0.185208 -0.867833,0 -1.386416,-0.492125 -0.513292,-0.497416 -0.513292,-1.275291 0,-0.915459 0.714375,-1.412875 0.719667,-0.497417 2.021417,-0.497417 h 0.756708 v -0.211667 q 0,-0.439208 -0.28575,-0.650875 -0.280458,-0.211666 -0.8255,-0.211666 -0.269875,0 -0.693208,0.07937 -0.423334,0.07408 -0.846667,0.216958 l -0.386292,-1.11125 q 0.545042,-0.206375 1.132417,-0.312208 0.592667,-0.105834 1.058333,-0.105834 1.254125,0 1.852084,0.513292 0.603249,0.508 0.603249,1.471083 z m -2.624666,0.60325 q 0.269875,0 0.566208,-0.15875 0.296334,-0.164042 0.449792,-0.460375 v -0.910167 h -0.41275 q -0.6985,0 -1.026583,0.216958 -0.328084,0.211667 -0.328084,0.624417 0,0.322792 0.195792,0.508 0.201083,0.179917 0.555625,0.179917 z"
         style="font-style:normal;font-variant:normal;font-weight:bold;font-stretch:normal;font-family:'Fira Code';-inkscape-font-specification:'Fira Code Bold';fill:#ffffff;stroke-width:0.26458332"
         id="path832" />
      <path
         d="m 85.258066,72.91 v 6.085416 q 0,0.338667 0.1905,0.486833 0.195792,0.142875 0.534458,0.142875 0.216959,0 0.418042,-0.04762 0.201083,-0.05292 0.375708,-0.121708 l 0.402167,1.116542 q -0.28575,0.148166 -0.687917,0.259291 -0.402166,0.111125 -0.936625,0.111125 -1.016,0 -1.49225,-0.582083 -0.47625,-0.587375 -0.47625,-1.571625 V 74.053 H 81.929608 V 72.91 Z"
         style="font-style:normal;font-variant:normal;font-weight:bold;font-stretch:normal;font-family:'Fira Code';-inkscape-font-specification:'Fira Code Bold';fill:#ffffff;stroke-width:0.26458332"
         id="path834" />
      <path
         d="m 93.989299,75.143083 -1.87325,5.61975 q -0.248708,0.746125 -0.661458,1.248833 -0.407458,0.508 -1.021292,0.783167 -0.608541,0.275166 -1.465791,0.322791 l -0.1905,-1.180041 q 0.555625,-0.06879 0.894291,-0.206375 0.343959,-0.137584 0.550334,-0.375709 0.211666,-0.232833 0.365125,-0.592666 h -0.5715 l -1.783292,-5.61975 h 1.767417 l 1.090083,4.550833 1.185333,-4.550833 z"
         style="font-style:normal;font-variant:normal;font-weight:bold;font-stretch:normal;font-family:'Fira Code';-inkscape-font-specification:'Fira Code Bold';fill:#ffffff;stroke-width:0.26458332"
         id="path836" />
      <path
         d="m 97.021408,79.498124 h 2.815166 l -0.15875,1.264709 h -4.630208 v -1.180042 l 2.788708,-3.180292 h -2.555875 v -1.259416 h 4.503208 v 1.17475 z"
         style="font-style:normal;font-variant:normal;font-weight:bold;font-stretch:normal;font-family:'Fira Code';-inkscape-font-specification:'Fira Code Bold';fill:#ffffff;stroke-width:0.26458332"
         id="path838" />
      <path
         d="m 102.82635,78.439791 q 0.0582,0.460375 0.23813,0.746125 0.1852,0.280458 0.47095,0.41275 0.28575,0.127 0.6403,0.127 0.38629,0 0.74612,-0.127 0.35983,-0.127 0.69321,-0.338667 l 0.67204,0.910167 q -0.39687,0.338667 -0.96308,0.555625 -0.56092,0.216958 -1.28059,0.216958 -0.96308,0 -1.61395,-0.381 -0.65088,-0.386291 -0.97896,-1.058333 -0.32809,-0.672042 -0.32809,-1.545167 0,-0.830791 0.3175,-1.508125 0.3175,-0.682625 0.92605,-1.084791 0.61383,-0.407459 1.49754,-0.407459 0.80433,0 1.39171,0.343959 0.59266,0.343958 0.91545,0.989541 0.32809,0.645584 0.32809,1.550459 0,0.142875 -0.0106,0.306916 -0.005,0.164042 -0.0212,0.291042 z m 1.03717,-2.360083 q -0.44979,0 -0.72496,0.322791 -0.27517,0.322792 -0.33338,1.031875 h 2.06375 q -0.005,-0.613833 -0.23812,-0.98425 -0.23283,-0.370416 -0.76729,-0.370416 z"
         style="font-style:normal;font-variant:normal;font-weight:bold;font-stretch:normal;font-family:'Fira Code';-inkscape-font-specification:'Fira Code Bold';fill:#ffffff;stroke-width:0.26458332"
         id="path840" />
      <path
         d="m 107.77933,80.762833 v -1.121834 h 0.74084 v -3.386666 h -0.74084 v -1.11125 h 2.01613 l 0.30692,1.264708 q 0.30162,-0.724958 0.76729,-1.0795 0.47096,-0.354542 1.14829,-0.354542 0.28575,0 0.508,0.04762 0.22225,0.04233 0.41804,0.121709 l -0.508,1.381125 q -0.15346,-0.04233 -0.30692,-0.0635 -0.15345,-0.02117 -0.33866,-0.02117 -0.55034,0 -0.96838,0.449792 -0.41275,0.449791 -0.62971,1.143 v 1.608666 h 1.11125 v 1.121834 z m 3.80471,-3.27025 v -1.640417 l 0.24871,-0.709083 h 1.11125 l -0.31221,2.3495 z"
         style="font-style:normal;font-variant:normal;font-weight:bold;font-stretch:normal;font-family:'Fira Code';-inkscape-font-specification:'Fira Code Bold';fill:#ffffff;stroke-width:0.26458332"
         id="path842" />
    </g>
  </g>
</svg>
