<?xml version="1.0" encoding="UTF-8" standalone="no" ?>
<svg
    xmlns="http://www.w3.org/2000/svg"
    width="40"
    height="40"
    viewBox="2.0 2.0 22.5 22.5"
    version="1.1"
>
  <rect x="2.0" y="2.0" width="22.5" height="22.5" fill="#ffffff" />
  <g id="layer1" transform="translate(-48.088531,-60.285631)">
    <g
            aria-label="m."
            style="font-style:normal;font-weight:normal;font-size:10.58333302px;line-height:1.25;font-family:sans-serif;letter-spacing:0px;word-spacing:0px;fill:#000000;fill-opacity:1;stroke:#ffffff;stroke-width:0.5px;paint-order:stroke"
            id="text3715"
        >
      <path
                d="M55.56778799666667 63.12465775746667Q56.1810785768 63.12465775746667 56.47686916633333 63.52356800206667Q56.77265975586666 63.92247824666667 56.77265975586666 64.8125636904V69.078461H55.3018478336V65.00794830000001Q55.3018478336 64.70401668506668 55.2448606558 64.57918762893334Q55.187873478 64.4543585728 55.01419826946667 64.4543585728Q54.878514512799995 64.4543585728 54.73468973073333 64.53305515166667Q54.59086494866666 64.61175173053334 54.41718974013333 64.8288457412V69.078461H53.212317980933335V65.00794830000001Q53.212317980933335 64.70401668506668 53.15533080313334 64.57918762893334Q53.098343625333335 64.4543585728 52.924668416799996 64.4543585728Q52.78898466013333 64.4543585728 52.645159878066664 64.53305515166667Q52.501335096 64.61175173053334 52.327659887466666 64.8288457412V69.078461H50.83513856413333V63.314615016800005H52.094283826L52.2082581816 63.87363209426667Q52.47962569493333 63.50457227613334 52.756420558533335 63.314615016800005Q53.03321542213333 63.12465775746667 53.4131299408 63.12465775746667Q53.738770956799996 63.12465775746667 53.96943334313333 63.29019194060001Q54.20009572946667 63.45572612373334 54.29778803426667 63.80850389106667Q54.55830084706666 63.50457227613334 54.87308716253333 63.314615016800005Q55.187873478 63.12465775746667 55.56778799666667 63.12465775746667ZM59.106420370533336 68.0526917996Q59.106420370533336 67.72162343333333 59.26924087853334 67.44754224486667Q59.432061386533334 67.1734610564 59.70885625013334 67.00792687326667Q59.98565111373333 66.84239269013334 60.31671948 66.84239269013334Q60.65321519653334 66.84239269013334 60.927296385000005 67.00792687326667Q61.201377573466665 67.1734610564 61.36419808146667 67.44754224486667Q61.52701858946667 67.72162343333333 61.52701858946667 68.0526917996Q61.52701858946667 68.3783328156 61.36419808146667 68.6551276792Q61.201377573466665 68.93192254280001 60.927296385000005 69.09745672593334Q60.65321519653334 69.26299090906667 60.31671948 69.26299090906667Q59.98565111373333 69.26299090906667 59.70885625013334 69.09745672593334Q59.432061386533334 68.93192254280001 59.26924087853334 68.6551276792Q59.106420370533336 68.3783328156 59.106420370533336 68.0526917996Z"
                style="font-style:normal;font-variant:normal;font-weight:bold;font-stretch:normal;font-family:'Fira Code';-inkscape-font-specification:'Fira Code Bold'"
                id="path817"
            />
    </g>
    <rect
            style="fill:#30363b;fill-opacity:1;stroke:#20262b;stroke-width:0.39559129;stroke-miterlimit:4;stroke-dasharray:none;stroke-opacity:1"
            id="rect3721"
            width="10.604409"
            height="12.604408"
            x="61.286327"
            y="71.483421"
        />
    <g
            aria-label="a"
            style="font-style:normal;font-weight:normal;font-size:10.58333302px;line-height:1.25;font-family:sans-serif;letter-spacing:0px;word-spacing:0px;fill:#ffffff;fill-opacity:1;stroke:none;stroke-width:0.26458332"
            id="text3719"
        >
      <path
                d="m 69.065615,79.143583 q 0,0.3175 0.08467,0.460375 0.08996,0.142875 0.28575,0.216958 l -0.343958,1.100667 q -0.497417,-0.04762 -0.841375,-0.216959 -0.338667,-0.174625 -0.534459,-0.523875 -0.322791,0.386292 -0.825499,0.576792 -0.502709,0.185208 -1.026584,0.185208 -0.867833,0 -1.386416,-0.492125 -0.513292,-0.497416 -0.513292,-1.275291 0,-0.915459 0.714375,-1.412875 0.719667,-0.497417 2.021417,-0.497417 h 0.756708 v -0.211667 q 0,-0.439208 -0.28575,-0.650875 -0.280458,-0.211666 -0.8255,-0.211666 -0.269875,0 -0.693208,0.07937 -0.423334,0.07408 -0.846667,0.216958 l -0.386292,-1.11125 q 0.545042,-0.206375 1.132417,-0.312208 0.592667,-0.105834 1.058333,-0.105834 1.254125,0 1.852083,0.513292 0.60325,0.508 0.60325,1.471083 z m -2.624666,0.60325 q 0.269875,0 0.566208,-0.15875 0.296334,-0.164042 0.449792,-0.460375 v -0.910167 h -0.41275 q -0.6985,0 -1.026583,0.216958 -0.328084,0.211667 -0.328084,0.624417 0,0.322792 0.195792,0.508 0.201083,0.179917 0.555625,0.179917 z"
                style="font-style:normal;font-variant:normal;font-weight:bold;font-stretch:normal;font-family:'Fira Code';-inkscape-font-specification:'Fira Code Bold';fill:#ffffff;stroke-width:0.26458332"
                id="path822"
            />
    </g>
  </g>
</svg>
